<svg viewBox="0 0 27.949 21.737" fill="none" xmlns="http://www.w3.org/2000/svg" xmlns:xlink="http://www.w3.org/1999/xlink" id="1177543" x="0" y="0"><g id="Services - Desktop" data-node-id="797:1317" clip-path="url(#clip0_797_1317)"><path id="Vector 1" data-node-id="895:2132" d="M7.5288,3.0197c-0.253,0.34 -1.225,1.19 -2.413,2.31c-0.777,0.73 -1.14,1.46 -1.538,2.32c-0.435,0.93 -0.931,2.09 -1.343,3.65c-0.342,1.3 -0.768,3.83 -0.667,4.77c0.079,0.73 0.867,1.84 1.279,2.52c0.209,0.34 0.84,0.77 1.967,1.39c0.595,0.32 2.672,0.24 4.157,-0.07c1.326,-0.28 1.293,-1.87 1.525,-2.98c0.366,-1.74 -0.459,-2.7 -0.817,-3.32c-0.311,-0.54 -0.919,-0.68 -1.992,-1.06c-1.811,-0.65 -3.505,-0.25 -3.993,-0.01c-0.651,0.32 -0.691,1.4 -0.833,2.06c-0.15,0.69 -0.09,1.28 0.037,1.66c0.552,1.66 2.99,1.72 3.937,1.73c0.335,0.01 0.565,-0.15 0.807,-0.45c0.395,-0.48 0.526,-1.43 0.552,-2.31c0.014,-0.49 -0.102,-0.71 -0.28,-0.94c-0.296,-0.38 -0.665,-0.6 -0.92,-0.7c-0.249,-0.09 -0.994,-0.07 -2.003,0.07c-0.638,0.09 -0.838,0.68 -0.966,1.01c-0.111,0.28 -0.103,0.72 -0.027,1.3c0.086,0.65 0.486,1.01 0.905,1.22c1.469,0.75 2.213,0.56 2.969,0.38c0.318,-0.08 0.551,-0.5 0.743,-1.06c0.102,-0.3 0.065,-0.68 0.002,-0.95c-0.064,-0.28 -0.19,-0.45 -0.331,-0.53c-0.142,-0.09 -0.294,-0.09 -0.524,0.09c-0.591,0.47 -0.923,1.15 -1.038,1.65c-0.062,0.26 -0.039,0.58 0.075,0.81c0.23,0.46 0.703,0.54 0.946,0.58c0.115,0.02 0.217,0.02 0.345,-0.1c0.324,-0.28 0.462,-1.1 0.424,-1.96c-0.014,-0.34 -0.215,-0.45 -0.369,-0.53c-0.726,-0.41 -1.713,-0.06 -2.148,0.28c-0.208,0.16 -0.282,0.45 -0.334,0.65c-0.053,0.2 -0.053,0.34 0.087,0.38c0.139,0.05 0.418,-0.01 0.612,-0.15c0.37,-0.27 0.425,-1.13 0.413,-2c-0.005,-0.33 -0.139,-0.44 -0.483,-0.5c-0.916,-0.15 -1.602,0.03 -1.818,0.07c-0.143,0.03 -0.343,-0.21 -0.46,-0.36c-0.73,-0.98 -0.32,-3.14 -0.411,-4.16c-0.054,-0.6 -0.014,-1.16 0.114,-1.94c0.166,-1.02 0.537,-1.49 0.754,-1.99c0.244,-0.56 0.702,-1.15 1.24,-1.62c0.581,-0.51 1.252,-0.86 2.032,-1.42c0.606,-0.43 1.063,-0.49 1.919,-0.79c0.504,-0.18 0.909,-0.24 1.154,-0.41c0.313,-0.22 -0.83,0.25 -1.315,0.5c-0.668,0.36 -1.226,1.08 -1.982,2c-0.529,0.65 -0.986,1.61 -1.242,2.17c-0.334,0.74 -0.588,1.93 -0.807,2.9c-0.175,0.78 -0.14,1.36 -0.179,3.53c-0.006,0.33 -0.038,0.14 -0.076,-0.05c-0.133,-0.64 -0.243,-1.37 -0.283,-3.88c-0.019,-1.24 0.115,-1.81 0.23,-2.22c0.053,-0.19 0.14,-0.33 0.204,1.09c0.065,1.42 0.116,4.39 0.154,6c0.05,2.06 0.295,2.79 0.486,3.47c0.08,0.29 0.244,0.49 0.333,0.7c0.234,0.56 1.086,0.44 1.826,0.51c0.659,0.06 1.179,-0.04 1.434,-0.18c0.648,-0.36 0.794,-1.56 0.795,-2.37c0.001,-0.17 -0.152,-0.24 -0.356,-0.29c-0.5,-0.1 -0.998,0.02 -1.355,0.17c-0.358,0.24 -0.667,0.7 -0.859,1.35c-0.065,0.34 -0.065,0.7 -0.065,1.08" stroke="#ECE4CF" stroke-width="3.10541" stroke-linecap="round" stroke-linejoin="round"/><path id="Vector 2" data-node-id="895:2133" d="M23.0558,3.0197c-0.252,0.34 -1.224,1.19 -2.412,2.31c-0.778,0.73 -1.141,1.46 -1.538,2.32c-0.435,0.93 -0.932,2.09 -1.344,3.65c-0.341,1.3 -0.768,3.83 -0.666,4.77c0.078,0.73 0.866,1.84 1.278,2.52c0.209,0.34 0.841,0.77 1.967,1.39c0.596,0.32 2.672,0.24 4.157,-0.07c1.327,-0.28 1.293,-1.87 1.525,-2.98c0.366,-1.74 -0.459,-2.7 -0.817,-3.32c-0.31,-0.54 -0.919,-0.68 -1.991,-1.06c-1.812,-0.65 -3.506,-0.25 -3.994,-0.01c-0.651,0.32 -0.691,1.4 -0.833,2.06c-0.15,0.69 -0.09,1.28 0.037,1.66c0.552,1.66 2.991,1.72 3.937,1.73c0.336,0.01 0.565,-0.15 0.807,-0.45c0.396,-0.48 0.527,-1.43 0.552,-2.31c0.014,-0.49 -0.101,-0.71 -0.279,-0.94c-0.296,-0.38 -0.666,-0.6 -0.921,-0.7c-0.248,-0.09 -0.993,-0.07 -2.003,0.07c-0.638,0.09 -0.837,0.68 -0.965,1.01c-0.112,0.28 -0.103,0.72 -0.027,1.3c0.085,0.65 0.485,1.01 0.905,1.22c1.468,0.75 2.212,0.56 2.968,0.38c0.318,-0.08 0.551,-0.5 0.743,-1.06c0.102,-0.3 0.065,-0.68 0.002,-0.95c-0.063,-0.28 -0.19,-0.45 -0.331,-0.53c-0.141,-0.09 -0.293,-0.09 -0.523,0.09c-0.592,0.47 -0.924,1.15 -1.039,1.65c-0.061,0.26 -0.039,0.58 0.075,0.81c0.231,0.46 0.703,0.54 0.946,0.58c0.115,0.02 0.217,0.02 0.345,-0.1c0.324,-0.28 0.462,-1.1 0.425,-1.96c-0.015,-0.34 -0.215,-0.45 -0.37,-0.53c-0.725,-0.41 -1.713,-0.06 -2.147,0.28c-0.209,0.16 -0.283,0.45 -0.335,0.65c-0.052,0.2 -0.052,0.34 0.087,0.38c0.139,0.05 0.418,-0.01 0.612,-0.15c0.37,-0.27 0.425,-1.13 0.413,-2c-0.005,-0.33 -0.139,-0.44 -0.482,-0.5c-0.917,-0.15 -1.602,0.03 -1.819,0.07c-0.143,0.03 -0.343,-0.21 -0.46,-0.36c-0.73,-0.98 -0.32,-3.14 -0.411,-4.16c-0.054,-0.6 -0.013,-1.16 0.114,-1.94c0.166,-1.02 0.537,-1.49 0.755,-1.99c0.243,-0.56 0.701,-1.15 1.239,-1.62c0.581,-0.51 1.252,-0.86 2.033,-1.42c0.605,-0.43 1.062,-0.49 1.918,-0.79c0.504,-0.18 0.909,-0.24 1.154,-0.41c0.313,-0.22 -0.83,0.25 -1.315,0.5c-0.667,0.36 -1.226,1.08 -1.982,2c-0.529,0.65 -0.986,1.61 -1.242,2.17c-0.334,0.74 -0.588,1.93 -0.806,2.9c-0.175,0.78 -0.141,1.36 -0.18,3.53c-0.006,0.33 -0.038,0.14 -0.076,-0.05c-0.133,-0.64 -0.243,-1.37 -0.282,-3.88c-0.02,-1.24 0.115,-1.81 0.229,-2.22c0.053,-0.19 0.14,-0.33 0.205,1.09c0.064,1.42 0.115,4.39 0.154,6c0.049,2.06 0.294,2.79 0.485,3.47c0.08,0.29 0.244,0.49 0.333,0.7c0.235,0.56 1.086,0.44 1.826,0.51c0.659,0.06 1.179,-0.04 1.434,-0.18c0.648,-0.36 0.794,-1.56 0.796,-2.37c0,-0.17 -0.152,-0.24 -0.356,-0.29c-0.501,-0.1 -0.999,0.02 -1.356,0.17c-0.357,0.24 -0.666,0.7 -0.858,1.35c-0.066,0.34 -0.066,0.7 -0.066,1.08" stroke="#ECE4CF" stroke-width="3.10541" stroke-linecap="round" stroke-linejoin="round"/></g><defs><clipPath id="clip0_797_1317">
<rect width="1440" height="6497" fill="white" x="-701.4472" y="-4012.4503"/>
</clipPath></defs></svg>